<svg data-v-decfdd8a="" version="1.0" xmlns="http://www.w3.org/2000/svg" xmlns:xlink="http://www.w3.org/1999/xlink" viewBox="0 0 340.000000 250.000000" preserveAspectRatio="xMidYMid meet" color-interpolation-filters="sRGB" style="margin: auto;"><rect data-v-decfdd8a="" x="0" y="0" width="100%" height="100%" fill="#ffffff" fill-opacity="1" class="background"/><!----><g data-v-decfdd8a="" fill="#ee1d22" class="bordersvg b-d1" transform="translate(70.81999969482422,75.29199981689453)"><polyline stroke="#ee1d22" stroke-width="3" fill-opacity="0" fill="#ffffff" points="99.18000030517578,20 99.18000030517578,10 198.36000061035156,0 198.36000061035156,99.41599655151367 99.18000030517578,89.41599655151367 99.18000030517578,79.41599655151367"/><g transform="translate(0,20)"><g><rect data-gra="graph-name-bg" stroke-width="2" class="i-icon-bg" x="0" y="0" width="198.36000061035156" height="59.41599655151367" fill-opacity="0"/><!----><!----></g><g transform="translate(10,3)"><g data-gra="path-name" fill-rule="" class="tp-name" transform="translate(0,0)"><g transform="scale(1)"><g><path d="M24.53-38.55L24.53-38.55 31.13-38.55 31.13-0.06 23.98-0.06 8.53-26.4 8.53-0.06 1.93-0.06 1.93-38.55 9.07-38.55 24.53-12.21 24.53-38.55ZM62.81-10.45L55.88-10.45 41.47-10.45Q42.02-9.19 43.06-8.2L43.06-8.2Q44.22-7.04 45.65-6.46 47.08-5.88 48.67-5.88L48.67-5.88Q50.93-5.88 52.69-6.93L52.69-6.93 59.56-4.18Q57.59-1.87 54.78-0.58 51.98 0.71 48.67 0.71L48.67 0.71Q45.65 0.71 43.01-0.41 40.37-1.54 38.39-3.52 36.41-5.5 35.28-8.14 34.16-10.78 34.16-13.75L34.16-13.75Q34.16-16.77 35.28-19.41 36.41-22.05 38.39-24.04 40.37-26.02 43.01-27.14 45.65-28.27 48.67-28.27L48.67-28.27Q51.7-28.27 54.34-27.14 56.98-26.02 58.96-24.04 60.94-22.05 62.07-19.41 63.2-16.77 63.2-13.75L63.2-13.75Q63.2-11.99 62.81-10.45L62.81-10.45ZM48.67-21.67L48.67-21.67Q45.48-21.67 43.06-19.36L43.06-19.36Q42.02-18.32 41.47-17.05L41.47-17.05 55.88-17.05Q55.33-18.32 54.28-19.36L54.28-19.36Q51.98-21.67 48.67-21.67ZM79.09-6.6L80.74 0 74.69 0Q72.82 0 71.17-0.71 69.52-1.43 68.31-2.67 67.1-3.9 66.39-5.55 65.67-7.21 65.67-9.07L65.67-9.07 65.67-33.05 72.27-34.7 72.27-24.2 76.12-24.2 77.77-17.6 72.27-17.6 72.27-9.07Q72.27-8.03 72.98-7.32 73.7-6.6 74.69-6.6L74.69-6.6 79.09-6.6ZM108.84-31.9L108.84-31.9 89.54-31.9 89.54-22.55 103.89-22.55 105.55-15.95 89.54-15.95 89.54 0 82.94 0 82.94-38.5 108.84-38.5 108.84-31.9ZM117.92-25.41L117.92-25.41Q119.46-26.68 121.41-27.5 123.36-28.32 125.84-28.32L125.84-28.32 125.84-21.73Q122.54-21.73 120.23-19.41L120.23-19.41Q117.92-17 117.92-13.8L117.92-13.8 117.92 0 111.32 0 111.32-13.8 111.32-27.55 117.92-27.55 117.92-25.41ZM140.41-21.67L140.41-21.67Q137.12-21.67 134.81-19.36L134.81-19.36Q132.5-17.05 132.5-13.75L132.5-13.75Q132.5-10.51 134.81-8.2L134.81-8.2Q135.91-7.04 137.36-6.46 138.82-5.88 140.41-5.88L140.41-5.88Q142.01-5.88 143.44-6.46 144.87-7.04 146.03-8.2L146.03-8.2Q148.34-10.51 148.34-13.75L148.34-13.75Q148.34-17.05 146.03-19.36L146.03-19.36Q143.6-21.67 140.41-21.67ZM140.41-28.27L140.41-28.27Q143.44-28.27 146.08-27.14 148.72-26.02 150.7-24.04 152.68-22.05 153.81-19.41 154.94-16.77 154.94-13.75L154.94-13.75Q154.94-10.78 153.81-8.14 152.68-5.5 150.7-3.52 148.72-1.54 146.08-0.41 143.44 0.71 140.41 0.71L140.41 0.71Q137.39 0.71 134.75-0.41 132.11-1.54 130.13-3.52 128.15-5.5 127.02-8.14 125.89-10.78 125.89-13.75L125.89-13.75Q125.89-16.77 127.02-19.41 128.15-22.05 130.13-24.04 132.11-26.02 134.75-27.14 137.39-28.27 140.41-28.27ZM180.29-27.45L180.29-27.45 180.29-22.99 167.03-6.6 179.63-6.6 179.63 0 161.7 0 161.7 0 156.86 0 156.86-4.46 170.12-20.9 158.01-20.9 158.01-27.5 175.62-27.5 175.62-27.45 180.29-27.45Z" transform="translate(-1.9300000667572021, 38.54999923706055)"/></g><!----><!----><!----><!----><!----><!----><!----></g></g><g data-gra="path-slogan" fill-rule="" class="tp-slogan" transform="translate(6.68499755859375,45.2599983215332)"><rect width="0"/><rect x="167.99000549316406" width="0.3699951171875"/><g transform="translate(0,0)"><g transform="scale(1)"><path d="M1.08-7.87L1.08 0L5.52 0L5.52-0.85L2.08-0.85L2.08-7.87ZM9.50 0.14C10.00 0.14 10.45 0.05 10.87-0.14C11.28-0.34 11.63-0.61 11.93-0.97C12.23-1.32 12.47-1.75 12.63-2.26C12.79-2.77 12.88-3.34 12.88-3.97C12.88-4.60 12.79-5.16 12.63-5.66C12.47-6.16 12.23-6.58 11.93-6.93C11.63-7.28 11.28-7.55 10.87-7.73C10.45-7.92 10.00-8.02 9.50-8.02C9.01-8.02 8.55-7.92 8.14-7.74C7.73-7.56 7.38-7.29 7.08-6.94C6.78-6.59 6.55-6.17 6.39-5.67C6.23-5.17 6.14-4.60 6.14-3.97C6.14-3.34 6.23-2.77 6.39-2.26C6.55-1.75 6.78-1.32 7.08-0.97C7.38-0.61 7.73-0.34 8.14-0.14C8.55 0.05 9.01 0.14 9.50 0.14ZM9.50-0.73C9.15-0.73 8.83-0.81 8.55-0.96C8.27-1.11 8.02-1.33 7.82-1.61C7.61-1.90 7.46-2.24 7.34-2.63C7.23-3.03 7.18-3.48 7.18-3.97C7.18-4.46 7.23-4.90 7.34-5.29C7.46-5.68 7.61-6.02 7.82-6.29C8.02-6.56 8.27-6.77 8.55-6.92C8.83-7.07 9.15-7.14 9.50-7.14C9.86-7.14 10.17-7.07 10.46-6.92C10.74-6.77 10.99-6.56 11.19-6.29C11.39-6.02 11.55-5.68 11.66-5.29C11.78-4.90 11.83-4.46 11.83-3.97C11.83-3.48 11.78-3.03 11.66-2.63C11.55-2.24 11.39-1.90 11.19-1.61C10.99-1.33 10.74-1.11 10.46-0.96C10.17-0.81 9.86-0.73 9.50-0.73ZM17.02-1.72L16.42-1.02C16.76-0.66 17.17-0.38 17.64-0.17C18.11 0.04 18.62 0.14 19.18 0.14C19.59 0.14 19.96 0.09 20.29-0.03C20.62-0.15 20.90-0.31 21.13-0.51C21.36-0.71 21.54-0.95 21.67-1.22C21.79-1.50 21.85-1.79 21.85-2.10C21.85-2.39 21.81-2.64 21.73-2.86C21.64-3.08 21.53-3.27 21.38-3.44C21.24-3.60 21.07-3.75 20.87-3.87C20.67-3.99 20.46-4.10 20.23-4.20L19.12-4.68C18.96-4.74 18.80-4.81 18.65-4.89C18.50-4.97 18.36-5.05 18.23-5.15C18.10-5.25 18.00-5.37 17.92-5.50C17.85-5.63 17.81-5.80 17.81-5.99C17.81-6.35 17.94-6.63 18.21-6.83C18.48-7.04 18.83-7.14 19.27-7.14C19.64-7.14 19.97-7.07 20.26-6.94C20.55-6.81 20.82-6.63 21.06-6.40L21.60-7.04C21.32-7.33 20.98-7.57 20.58-7.75C20.18-7.93 19.74-8.02 19.27-8.02C18.91-8.02 18.58-7.96 18.28-7.86C17.98-7.76 17.72-7.61 17.50-7.42C17.28-7.23 17.11-7.01 16.99-6.76C16.86-6.50 16.80-6.22 16.80-5.93C16.80-5.64 16.85-5.39 16.94-5.17C17.04-4.95 17.16-4.76 17.32-4.60C17.47-4.44 17.64-4.30 17.83-4.19C18.02-4.08 18.21-3.98 18.40-3.90L19.52-3.41C19.71-3.32 19.88-3.24 20.04-3.16C20.20-3.08 20.34-2.99 20.45-2.89C20.57-2.79 20.66-2.67 20.73-2.53C20.80-2.39 20.83-2.22 20.83-2.02C20.83-1.63 20.69-1.32 20.40-1.09C20.11-0.85 19.71-0.73 19.19-0.73C18.78-0.73 18.39-0.82 18.01-1.00C17.63-1.18 17.30-1.42 17.02-1.72ZM24.79-7.03L24.79 0L25.80 0L25.80-7.03L28.18-7.03L28.18-7.87L22.42-7.87L22.42-7.03ZM30.59-4.14L30.59-7.07L31.91-7.07C32.52-7.07 33.00-6.96 33.32-6.76C33.65-6.55 33.82-6.18 33.82-5.66C33.82-5.15 33.65-4.77 33.32-4.52C33.00-4.27 32.52-4.14 31.91-4.14ZM33.91 0L35.04 0L33.05-3.43C33.58-3.57 34.01-3.82 34.33-4.19C34.65-4.56 34.81-5.05 34.81-5.66C34.81-6.07 34.74-6.42 34.61-6.70C34.47-6.98 34.28-7.20 34.04-7.38C33.79-7.56 33.50-7.68 33.16-7.76C32.82-7.83 32.45-7.87 32.05-7.87L29.59-7.87L29.59 0L30.59 0L30.59-3.32L32.02-3.32ZM36.56-7.87L36.56 0L41.22 0L41.22-0.85L37.56-0.85L37.56-3.71L40.55-3.71L40.55-4.56L37.56-4.56L37.56-7.03L41.10-7.03L41.10-7.87ZM46.24-3.20L43.87-3.20L44.24-4.40C44.39-4.84 44.52-5.28 44.65-5.72C44.78-6.15 44.90-6.60 45.02-7.06L45.07-7.06C45.20-6.60 45.33-6.15 45.46-5.72C45.58-5.28 45.72-4.84 45.86-4.40ZM46.49-2.40L47.23 0L48.30 0L45.64-7.87L44.51-7.87L41.84 0L42.86 0L43.62-2.40ZM49.42-7.87L49.42 0L50.34 0L50.34-4.33C50.34-4.68 50.32-5.07 50.29-5.50C50.26-5.92 50.23-6.31 50.21-6.66L50.26-6.66L50.88-4.91L52.40-0.79L52.97-0.79L54.48-4.91L55.12-6.66L55.16-6.66C55.13-6.31 55.10-5.92 55.07-5.50C55.05-5.07 55.03-4.68 55.03-4.33L55.03 0L55.98 0L55.98-7.87L54.80-7.87L53.29-3.65L52.74-2.04L52.69-2.04L52.12-3.65L50.59-7.87ZM58.14-7.87L58.14 0L59.14 0L59.14-7.87ZM61.30-7.87L61.30 0L62.24 0L62.24-4.12C62.24-4.53 62.23-4.95 62.20-5.36C62.17-5.77 62.14-6.18 62.11-6.58L62.16-6.58L63.01-4.96L65.87 0L66.90 0L66.90-7.87L65.95-7.87L65.95-3.80C65.95-3.39 65.97-2.97 65.99-2.54C66.02-2.11 66.05-1.70 66.07-1.30L66.02-1.30L65.17-2.93L62.33-7.87ZM68.60-3.94C68.60-3.30 68.69-2.72 68.87-2.21C69.04-1.71 69.29-1.28 69.60-0.93C69.91-0.58 70.28-0.32 70.72-0.13C71.15 0.05 71.62 0.14 72.14 0.14C72.67 0.14 73.15 0.06 73.57-0.11C73.99-0.29 74.32-0.50 74.58-0.77L74.58-4.08L72-4.08L72-3.25L73.67-3.25L73.67-1.20C73.51-1.06 73.30-0.94 73.05-0.86C72.80-0.77 72.53-0.73 72.25-0.73C71.83-0.73 71.45-0.81 71.13-0.96C70.81-1.11 70.53-1.33 70.31-1.61C70.09-1.89 69.93-2.23 69.81-2.62C69.69-3.02 69.64-3.46 69.64-3.96C69.64-4.45 69.70-4.89 69.82-5.28C69.95-5.67 70.12-6.01 70.34-6.28C70.57-6.56 70.84-6.77 71.16-6.92C71.48-7.07 71.84-7.14 72.24-7.14C72.64-7.14 72.97-7.07 73.23-6.93C73.49-6.79 73.72-6.62 73.92-6.41L74.48-7.04C74.25-7.28 73.95-7.51 73.59-7.71C73.23-7.91 72.77-8.02 72.23-8.02C71.70-8.02 71.22-7.92 70.78-7.73C70.34-7.55 69.95-7.28 69.63-6.92C69.31-6.57 69.05-6.14 68.87-5.64C68.69-5.14 68.60-4.57 68.60-3.94ZM78.43-3.94C78.43-3.30 78.52-2.72 78.69-2.21C78.86-1.71 79.10-1.28 79.41-0.93C79.72-0.58 80.08-0.32 80.50-0.13C80.92 0.05 81.38 0.14 81.88 0.14C82.38 0.14 82.83 0.04 83.22-0.16C83.61-0.36 83.96-0.64 84.28-1.00L83.71-1.61C83.46-1.33 83.19-1.11 82.90-0.96C82.62-0.81 82.28-0.73 81.90-0.73C81.52-0.73 81.19-0.81 80.89-0.96C80.59-1.11 80.33-1.33 80.12-1.61C79.92-1.89 79.75-2.23 79.64-2.62C79.52-3.02 79.46-3.46 79.46-3.96C79.46-4.45 79.52-4.89 79.64-5.28C79.76-5.67 79.93-6.01 80.15-6.28C80.36-6.56 80.62-6.77 80.93-6.92C81.23-7.07 81.57-7.14 81.95-7.14C82.28-7.14 82.58-7.07 82.83-6.94C83.08-6.81 83.31-6.63 83.52-6.41L84.08-7.04C83.85-7.30 83.56-7.53 83.20-7.72C82.84-7.92 82.42-8.02 81.94-8.02C81.43-8.02 80.97-7.92 80.54-7.73C80.11-7.55 79.74-7.28 79.43-6.92C79.12-6.57 78.87-6.14 78.70-5.64C78.52-5.14 78.43-4.57 78.43-3.94ZM88.30 0.14C88.79 0.14 89.25 0.05 89.66-0.14C90.07-0.34 90.43-0.61 90.73-0.97C91.03-1.32 91.26-1.75 91.42-2.26C91.59-2.77 91.67-3.34 91.67-3.97C91.67-4.60 91.59-5.16 91.42-5.66C91.26-6.16 91.03-6.58 90.73-6.93C90.43-7.28 90.07-7.55 89.66-7.73C89.25-7.92 88.79-8.02 88.30-8.02C87.80-8.02 87.35-7.92 86.93-7.74C86.52-7.56 86.17-7.29 85.87-6.94C85.58-6.59 85.35-6.17 85.18-5.67C85.02-5.17 84.94-4.60 84.94-3.97C84.94-3.34 85.02-2.77 85.18-2.26C85.35-1.75 85.58-1.32 85.87-0.97C86.17-0.61 86.52-0.34 86.93-0.14C87.35 0.05 87.80 0.14 88.30 0.14ZM88.30-0.73C87.94-0.73 87.63-0.81 87.34-0.96C87.06-1.11 86.81-1.33 86.61-1.61C86.41-1.90 86.25-2.24 86.14-2.63C86.02-3.03 85.97-3.48 85.97-3.97C85.97-4.46 86.02-4.90 86.14-5.29C86.25-5.68 86.41-6.02 86.61-6.29C86.81-6.56 87.06-6.77 87.34-6.92C87.63-7.07 87.94-7.14 88.30-7.14C88.65-7.14 88.97-7.07 89.25-6.92C89.53-6.77 89.78-6.56 89.98-6.29C90.19-6.02 90.34-5.68 90.46-5.29C90.57-4.90 90.62-4.46 90.62-3.97C90.62-3.48 90.57-3.03 90.46-2.63C90.34-2.24 90.19-1.90 89.98-1.61C89.78-1.33 89.53-1.11 89.25-0.96C88.97-0.81 88.65-0.73 88.30-0.73ZM93.36-7.87L93.36 0L94.31 0L94.31-4.12C94.31-4.53 94.29-4.95 94.27-5.36C94.24-5.77 94.21-6.18 94.18-6.58L94.22-6.58L95.08-4.96L97.93 0L98.96 0L98.96-7.87L98.02-7.87L98.02-3.80C98.02-3.39 98.03-2.97 98.06-2.54C98.09-2.11 98.11-1.70 98.14-1.30L98.09-1.30L97.24-2.93L94.39-7.87ZM103.55-7.87L103.55 0L107.99 0L107.99-0.85L104.54-0.85L104.54-7.87ZM112.76-3.20L110.40-3.20L110.77-4.40C110.92-4.84 111.05-5.28 111.18-5.72C111.31-6.15 111.43-6.60 111.55-7.06L111.60-7.06C111.73-6.60 111.86-6.15 111.98-5.72C112.11-5.28 112.25-4.84 112.39-4.40ZM113.02-2.40L113.76 0L114.83 0L112.16-7.87L111.04-7.87L108.37 0L109.39 0L110.15-2.40ZM117.91-3.94C117.91-3.30 118.00-2.72 118.18-2.21C118.35-1.71 118.60-1.28 118.91-0.93C119.22-0.58 119.59-0.32 120.02-0.13C120.46 0.05 120.93 0.14 121.45 0.14C121.98 0.14 122.45 0.06 122.87-0.11C123.29-0.29 123.63-0.50 123.89-0.77L123.89-4.08L121.31-4.08L121.31-3.25L122.98-3.25L122.98-1.20C122.82-1.06 122.61-0.94 122.36-0.86C122.11-0.77 121.84-0.73 121.56-0.73C121.14-0.73 120.76-0.81 120.44-0.96C120.11-1.11 119.84-1.33 119.62-1.61C119.40-1.89 119.23-2.23 119.12-2.62C119.00-3.02 118.94-3.46 118.94-3.96C118.94-4.45 119.01-4.89 119.13-5.28C119.25-5.67 119.43-6.01 119.65-6.28C119.88-6.56 120.15-6.77 120.47-6.92C120.79-7.07 121.15-7.14 121.55-7.14C121.95-7.14 122.28-7.07 122.54-6.93C122.80-6.79 123.03-6.62 123.23-6.41L123.79-7.04C123.56-7.28 123.26-7.51 122.90-7.71C122.53-7.91 122.08-8.02 121.54-8.02C121.01-8.02 120.52-7.92 120.08-7.73C119.64-7.55 119.26-7.28 118.94-6.92C118.61-6.57 118.36-6.14 118.18-5.64C118.00-5.14 117.91-4.57 117.91-3.94ZM129.07-3.20L126.71-3.20L127.08-4.40C127.22-4.84 127.36-5.28 127.49-5.72C127.62-6.15 127.74-6.60 127.86-7.06L127.91-7.06C128.04-6.60 128.16-6.15 128.29-5.72C128.42-5.28 128.56-4.84 128.70-4.40ZM129.32-2.40L130.07 0L131.14 0L128.47-7.87L127.34-7.87L124.68 0L125.70 0L126.46-2.40ZM132.28-1.72L131.68-1.02C132.02-0.66 132.43-0.38 132.90-0.17C133.37 0.04 133.88 0.14 134.44 0.14C134.85 0.14 135.22 0.09 135.55-0.03C135.88-0.15 136.16-0.31 136.39-0.51C136.62-0.71 136.80-0.95 136.93-1.22C137.05-1.50 137.11-1.79 137.11-2.10C137.11-2.39 137.07-2.64 136.99-2.86C136.90-3.08 136.79-3.27 136.64-3.44C136.50-3.60 136.33-3.75 136.13-3.87C135.93-3.99 135.72-4.10 135.49-4.20L134.38-4.68C134.22-4.74 134.06-4.81 133.91-4.89C133.76-4.97 133.62-5.05 133.49-5.15C133.36-5.25 133.26-5.37 133.18-5.50C133.11-5.63 133.07-5.80 133.07-5.99C133.07-6.35 133.20-6.63 133.47-6.83C133.74-7.04 134.09-7.14 134.53-7.14C134.90-7.14 135.23-7.07 135.52-6.94C135.81-6.81 136.08-6.63 136.32-6.40L136.86-7.04C136.58-7.33 136.24-7.57 135.84-7.75C135.44-7.93 135.00-8.02 134.53-8.02C134.17-8.02 133.84-7.96 133.54-7.86C133.24-7.76 132.98-7.61 132.76-7.42C132.54-7.23 132.37-7.01 132.25-6.76C132.12-6.50 132.06-6.22 132.06-5.93C132.06-5.64 132.11-5.39 132.20-5.17C132.30-4.95 132.42-4.76 132.58-4.60C132.73-4.44 132.90-4.30 133.09-4.19C133.28-4.08 133.47-3.98 133.66-3.90L134.78-3.41C134.97-3.32 135.14-3.24 135.30-3.16C135.46-3.08 135.60-2.99 135.71-2.89C135.83-2.79 135.92-2.67 135.99-2.53C136.06-2.39 136.09-2.22 136.09-2.02C136.09-1.63 135.95-1.32 135.66-1.09C135.37-0.85 134.97-0.73 134.45-0.73C134.04-0.73 133.65-0.82 133.27-1.00C132.89-1.18 132.56-1.42 132.28-1.72ZM140.05-7.03L140.05 0L141.06 0L141.06-7.03L143.44-7.03L143.44-7.87L137.68-7.87L137.68-7.03ZM145.85-4.14L145.85-7.07L147.17-7.07C147.78-7.07 148.26-6.96 148.58-6.76C148.91-6.55 149.08-6.18 149.08-5.66C149.08-5.15 148.91-4.77 148.58-4.52C148.26-4.27 147.78-4.14 147.17-4.14ZM149.17 0L150.30 0L148.31-3.43C148.84-3.57 149.27-3.82 149.59-4.19C149.91-4.56 150.07-5.05 150.07-5.66C150.07-6.07 150.00-6.42 149.87-6.70C149.73-6.98 149.54-7.20 149.30-7.38C149.05-7.56 148.76-7.68 148.42-7.76C148.08-7.83 147.71-7.87 147.31-7.87L144.85-7.87L144.85 0L145.85 0L145.85-3.32L147.28-3.32ZM151.82-7.87L151.82 0L152.82 0L152.82-7.87ZM156.61-7.03L156.61 0L157.62 0L157.62-7.03L160.00-7.03L160.00-7.87L154.24-7.87L154.24-7.03ZM161.41-7.87L161.41 0L166.07 0L166.07-0.85L162.41-0.85L162.41-3.71L165.40-3.71L165.40-4.56L162.41-4.56L162.41-7.03L165.95-7.03L165.95-7.87Z" transform="translate(-1.08, 8.016)"/></g></g></g></g></g></g><defs v-gra="od"/></svg>